# xmcd
#
# Track frame offsets: 
#        150
#        15660
#        33335
#        48027
#        61705
#        78660
#        90167
#        105902
#        119937
#        133305
#        147460
#
# Disc length: 2217 seconds
#
# Revision: 2
# Processed by: cddbd v1.5.2PL0 Copyright (c) Steve Scherf et al.
# Submitted via: ExactAudioCopy v1.0b3
#
DISCID=8c08a70b
DTITLE=Wilkinsons The - Here And Now
DYEAR=1999
DGENRE=Country
TTITLE0=Jimmy's Got A Girlfriend
TTITLE1=It Was Only A Kiss
TTITLE2=One Of Us Is In Love
TTITLE3=Till You Let Go
TTITLE4=Shame On Me
TTITLE5=Hypothetically
TTITLE6=1999
TTITLE7=Don't Look At Me Like That
TTITLE8=I'll Know Love
TTITLE9=Me, Myself And I
TTITLE10=The Only Rose
EXTD=
EXTT0=
EXTT1=
EXTT2=
EXTT3=
EXTT4=
EXTT5=
EXTT6=
EXTT7=
EXTT8=
EXTT9=
EXTT10=
PLAYORDER=
